<?xml version="1.0" standalone="no"?>
<!DOCTYPE svg PUBLIC "-//W3C//DTD SVG 20010904//EN"
 "http://www.w3.org/TR/2001/REC-SVG-20010904/DTD/svg10.dtd">
<svg version="1.0" xmlns="http://www.w3.org/2000/svg"
 width="254.000000pt" height="240.000000pt" viewBox="0 0 254.000000 240.000000"
 preserveAspectRatio="xMidYMid meet">

<g transform="translate(0.000000,240.000000) scale(0.100000,-0.100000)"
fill="#000000" stroke="none">
<path d="M1305 1763 c-93 -4 -313 -33 -382 -50 -78 -19 -131 -63 -178 -147
-34 -61 -35 -66 -35 -172 -1 -106 -1 -108 -18 -85 -9 13 -32 40 -51 59 -34 33
-36 34 -100 30 -92 -7 -175 -40 -201 -82 -41 -67 -21 -257 37 -349 24 -38 89
-91 125 -103 20 -6 33 -15 97 -69 51 -43 92 -68 99 -60 4 4 -3 14 -16 24 -13
9 -51 40 -86 68 -35 29 -67 53 -73 53 -23 0 -104 63 -126 97 -55 87 -76 262
-40 324 21 35 102 69 179 76 59 6 96 -12 119 -58 8 -15 23 -35 32 -45 16 -15
19 -44 23 -239 4 -189 8 -225 23 -248 22 -33 42 -36 32 -4 -20 67 -24 128 -25
401 l0 298 32 60 c17 33 49 74 69 92 42 36 125 66 185 66 21 1 59 5 84 10 25
5 111 14 193 20 131 9 162 8 283 -10 75 -11 155 -20 179 -20 50 0 56 -7 80
-80 10 -30 21 -59 25 -65 4 -5 12 -35 18 -65 31 -167 34 -212 28 -411 -4 -112
-8 -233 -9 -268 -1 -40 2 -66 9 -68 15 -5 24 91 32 332 4 105 11 197 16 205
35 58 106 141 131 154 26 12 88 20 132 17 40 -3 81 -193 69 -321 -10 -111
-102 -256 -191 -302 -22 -11 -59 -38 -81 -58 -23 -21 -56 -46 -74 -55 -17 -9
-29 -19 -26 -22 12 -12 57 9 102 50 27 25 67 53 89 65 52 26 130 115 167 189
35 71 45 169 30 295 -12 91 -39 160 -70 177 -23 12 -144 -2 -170 -21 -11 -7
-39 -38 -62 -68 -24 -30 -46 -59 -51 -64 -7 -8 -15 25 -39 169 -6 38 -15 74
-19 80 -5 5 -16 35 -26 65 -24 76 -48 100 -101 100 -23 0 -102 9 -176 20 -73
11 -155 19 -183 18 -27 -1 -77 -3 -110 -5z"/>
<path d="M881 1572 c-90 -48 -92 -165 -5 -223 57 -37 133 -17 175 47 37 57 17
133 -47 175 -37 24 -80 24 -123 1z m113 -58 c15 -16 26 -38 26 -54 0 -36 -44
-80 -80 -80 -31 0 -80 43 -80 71 0 76 82 114 134 63z"/>
<path d="M1654 1574 c-34 -16 -64 -61 -64 -94 0 -41 38 -89 81 -101 137 -42
223 134 95 195 -42 20 -72 20 -112 0z m100 -55 c14 -11 26 -29 26 -40 0 -27
-36 -59 -67 -59 -31 0 -73 35 -73 61 0 21 45 59 70 59 10 0 29 -9 44 -21z"/>
<path d="M880 1020 l0 -270 480 0 480 0 0 270 0 270 -480 0 -480 0 0 -270z
m232 178 c-16 -24 -37 -58 -46 -76 l-17 -33 -28 38 c-16 21 -43 51 -60 67 -17
17 -31 33 -31 38 0 4 47 8 105 8 l106 0 -29 -42z m209 23 c-14 -25 -98 -117
-103 -111 -1 3 -13 33 -25 68 l-22 62 80 0 c75 0 79 -1 70 -19z m114 -50 c-19
-38 -39 -72 -44 -75 -10 -7 -31 69 -31 113 0 31 0 31 55 31 l55 0 -35 -69z
m190 52 c-4 -10 -15 -47 -25 -83 l-18 -65 -20 45 c-11 25 -24 62 -27 83 l-7
37 52 0 c46 0 51 -2 45 -17z m112 -38 c-35 -59 -47 -68 -47 -32 -1 12 -7 33
-15 47 -22 38 -19 40 40 40 l54 0 -32 -55z m-223 8 c10 -53 55 -143 71 -143 8
0 19 17 24 38 5 20 15 57 22 82 l11 45 13 -30 c7 -16 19 -49 26 -72 7 -24 15
-43 18 -43 3 0 18 26 33 58 56 119 57 117 56 -83 0 -99 -3 -167 -7 -151 -8 39
-29 44 -37 9 -4 -15 -13 -41 -22 -57 -18 -36 -27 -24 -37 51 -4 29 -10 55 -14
58 -9 5 -56 -45 -101 -107 -18 -27 -37 -48 -40 -48 -4 0 -15 26 -24 58 -9 32
-22 67 -30 77 -13 18 -16 15 -46 -48 l-32 -68 -29 61 c-16 34 -33 59 -38 55
-5 -3 -22 -31 -37 -63 -14 -31 -28 -52 -30 -47 -2 6 -14 39 -27 74 -12 36 -27
66 -34 68 -7 3 -23 -17 -37 -44 -14 -26 -36 -61 -50 -78 l-24 -30 -21 48 c-12
27 -21 54 -21 62 0 7 -6 18 -14 24 -11 10 -19 2 -41 -42 -15 -30 -36 -65 -46
-78 -18 -24 -19 -21 -19 170 l0 195 34 -33 c19 -18 42 -48 52 -67 10 -19 24
-34 31 -34 6 0 26 26 43 58 17 31 39 68 49 81 l18 23 23 -71 c12 -39 28 -71
35 -71 8 0 38 27 67 60 l54 59 13 -60 c20 -97 50 -91 107 23 19 37 38 68 43
68 5 0 12 -17 15 -37z m-288 -328 l22 -65 -70 0 -70 0 31 38 c16 21 35 50 42
65 7 15 15 27 18 27 3 0 16 -29 27 -65z m454 -37 l8 -28 -59 0 c-32 0 -59 3
-59 6 0 6 48 71 70 94 14 14 16 13 23 -15 4 -16 12 -42 17 -57z m-614 -25 c-2
-2 -26 -3 -54 -1 l-50 3 31 54 31 55 23 -53 c13 -30 22 -56 19 -58z m414 66
c6 -22 14 -47 17 -55 4 -11 -5 -14 -40 -14 l-45 0 26 55 c15 30 28 55 29 55 1
0 7 -18 13 -41z m-110 -51 c0 -14 -8 -18 -40 -18 -22 0 -40 2 -40 5 0 2 10 25
22 50 l22 45 18 -32 c9 -18 17 -41 18 -50z m400 28 c0 -8 3 -21 6 -30 5 -12 0
-16 -20 -16 -30 0 -30 0 -14 35 12 27 28 33 28 11z"/>
</g>
</svg>
